<svg xmlns="http://www.w3.org/2000/svg" viewBox="0 0 35.179 42">
    <defs>
        <style>
            .cls-1{fill:gray}
        </style>
    </defs>
    <g id="Group_279" data-name="Group 279" transform="translate(-5.867)">
        <path id="Path_734" d="M177.1 18.985v1.107c-.026.094-.06.187-.077.281-.162 1.047-.289 2.1-.485 3.15-.9 4.793-2.188 9.492-3.559 14.166a10.412 10.412 0 0 1-1.7 3.542 1.656 1.656 0 0 1-1.345.766c-5.542-.009-11.093 0-16.635-.009a5.146 5.146 0 0 1-3.235-1.115 2.414 2.414 0 0 1-.962-1.992c.008-7.236 0-14.464.017-21.7a.913.913 0 0 1 .264-.562c1.022-.988 2.1-1.9 3.073-2.937a19.526 19.526 0 0 0 4.274-6.836 14.533 14.533 0 0 0 .749-4.342 2.285 2.285 0 0 1 2-2.5h.851a5.481 5.481 0 0 1 3.363 3.371 11.063 11.063 0 0 1 .724 3.388 27.037 27.037 0 0 1-.732 7.628c-.17.8-.375 1.592-.562 2.418.17.009.289.026.417.026h10.76c.187 0 .366.009.553.026a2.314 2.314 0 0 1 2.171 1.941 1.718 1.718 0 0 0 .076.183z" class="cls-1" data-name="Path 734" transform="translate(-136.054)"/>
        <path id="Path_735" d="M0 198.646c.2-.843.6-1.073 1.135-1.056 1.264.043 2.533.008 3.8.017.868 0 1.226.562 1.226 1.924v22.041c0 .817-.209 1.175-.723 1.183-1.216.017-2.426.017-3.642 0-.589-.008-.9-.5-.932-1.447l-.611-15.877c-.07-1.822-.139-3.652-.214-5.474-.005-.128-.027-.247-.043-.375.004-.314.004-.621.004-.936z" class="cls-1" data-name="Path 735" transform="translate(5.867 -180.769)"/>
    </g>
</svg>
