<svg xmlns="http://www.w3.org/2000/svg" viewBox="0 0 28.752 28">
    <defs>
        <style>
            .cls-1{fill:#fff}
        </style>
    </defs>
    <g id="Rounded" transform="rotate(90 18.58 14.173)">
        <path id="Path_9" d="M16.572 5.845v20.61l-9-9a1.86 1.86 0 0 0-2.62 0 1.838 1.838 0 0 0 0 2.6l12.155 12.157a1.838 1.838 0 0 0 2.6 0l12.161-12.159a1.838 1.838 0 0 0 0-2.6 1.838 1.838 0 0 0-2.6 0l-9 9V5.845A1.851 1.851 0 0 0 18.417 4a1.851 1.851 0 0 0-1.845 1.845z" class="cls-1" data-name="Path 9"/>
    </g>
</svg>
